<svg xmlns="http://www.w3.org/2000/svg" viewBox="0 0 720 460" width="700">
  <defs>
    <marker id="arrow" markerWidth="10" markerHeight="10" refX="9" refY="3" orient="auto">
      <polygon points="0 0, 10 3, 0 6" fill="#333"/>
    </marker>
  </defs>

  <!-- Input -->
  <rect x="280" y="20" width="160" height="50" rx="8" fill="#E3F2FD" stroke="#1976D2" stroke-width="2"/>
  <text x="360" y="50" text-anchor="middle" font-family="Arial" font-size="14" font-weight="bold">Features X_t</text>
  <text x="360" y="65" text-anchor="middle" font-family="Arial" font-size="10" fill="#666">(59 features causales)</text>

  <!-- Línea de bifurcación -->
  <line x1="360" y1="70" x2="360" y2="110" stroke="#333" stroke-width="2" marker-end="url(#arrow)"/>

  <!-- Stage 1: Router -->
  <rect x="200" y="120" width="320" height="70" rx="8" fill="#FFE0B2" stroke="#F57C00" stroke-width="2"/>
  <text x="360" y="145" text-anchor="middle" font-family="Arial" font-size="14" font-weight="bold">Stage 1: Régime Router</text>
  <text x="360" y="165" text-anchor="middle" font-family="Arial" font-size="11">XGBoost Classifier multiclase</text>
  <text x="360" y="180" text-anchor="middle" font-family="Arial" font-size="10" fill="#666">Output: P(low|X_t), P(med|X_t), P(high|X_t)</text>

  <!-- Líneas a specialists -->
  <line x1="280" y1="190" x2="160" y2="220" stroke="#333" stroke-width="2" marker-end="url(#arrow)"/>
  <line x1="360" y1="190" x2="360" y2="220" stroke="#333" stroke-width="2" marker-end="url(#arrow)"/>
  <line x1="440" y1="190" x2="560" y2="220" stroke="#333" stroke-width="2" marker-end="url(#arrow)"/>

  <!-- Stage 2: Specialists -->
  <rect x="40" y="225" width="200" height="80" rx="8" fill="#C8E6C9" stroke="#388E3C" stroke-width="2"/>
  <text x="140" y="250" text-anchor="middle" font-family="Arial" font-size="12" font-weight="bold">Specialist LOW</text>
  <text x="140" y="270" text-anchor="middle" font-family="Arial" font-size="11">Ridge (α=1.0)</text>
  <text x="140" y="290" text-anchor="middle" font-family="Arial" font-size="10" fill="#666">→ ŷ_low</text>

  <rect x="260" y="225" width="200" height="80" rx="8" fill="#C8E6C9" stroke="#388E3C" stroke-width="2"/>
  <text x="360" y="250" text-anchor="middle" font-family="Arial" font-size="12" font-weight="bold">Specialist MED</text>
  <text x="360" y="270" text-anchor="middle" font-family="Arial" font-size="11">XGBoost (md=4, η=0.05)</text>
  <text x="360" y="290" text-anchor="middle" font-family="Arial" font-size="10" fill="#666">→ ŷ_med</text>

  <rect x="480" y="225" width="200" height="80" rx="8" fill="#C8E6C9" stroke="#388E3C" stroke-width="2"/>
  <text x="580" y="250" text-anchor="middle" font-family="Arial" font-size="12" font-weight="bold">Specialist HIGH</text>
  <text x="580" y="270" text-anchor="middle" font-family="Arial" font-size="11">SVR rbf (C=2.0)</text>
  <text x="580" y="290" text-anchor="middle" font-family="Arial" font-size="10" fill="#666">→ ŷ_high</text>

  <!-- Líneas hacia mezcla -->
  <line x1="140" y1="305" x2="280" y2="335" stroke="#333" stroke-width="2" marker-end="url(#arrow)"/>
  <line x1="360" y1="305" x2="360" y2="335" stroke="#333" stroke-width="2" marker-end="url(#arrow)"/>
  <line x1="580" y1="305" x2="440" y2="335" stroke="#333" stroke-width="2" marker-end="url(#arrow)"/>

  <!-- Stage 3: Soft mixture -->
  <rect x="200" y="340" width="320" height="60" rx="8" fill="#FFCDD2" stroke="#C62828" stroke-width="2"/>
  <text x="360" y="362" text-anchor="middle" font-family="Arial" font-size="14" font-weight="bold">Stage 3: Soft Mixture</text>
  <text x="360" y="385" text-anchor="middle" font-family="Arial" font-size="12">ŷ = Σ P(r|X_t) · ŷ_r</text>

  <!-- Output -->
  <line x1="360" y1="400" x2="360" y2="430" stroke="#333" stroke-width="2" marker-end="url(#arrow)"/>
  <ellipse cx="360" cy="445" rx="60" ry="14" fill="#9E9E9E" stroke="#333" stroke-width="2"/>
  <text x="360" y="450" text-anchor="middle" font-family="Arial" font-size="13" font-weight="bold" fill="white">ŷ_t</text>
</svg>